<?xml version="1.0" encoding="UTF-8"?>
<!DOCTYPE svg PUBLIC "-//W3C//DTD SVG 1.1//EN" "http://www.w3.org/Graphics/SVG/1.1/DTD/svg11.dtd">
<!-- Creator: CorelDRAW 2017 -->
<svg xmlns="http://www.w3.org/2000/svg" xml:space="preserve" width="7.9374mm" height="7.9374mm" version="1.1" style="shape-rendering:geometricPrecision; text-rendering:geometricPrecision; image-rendering:optimizeQuality; fill-rule:evenodd; clip-rule:evenodd"
viewBox="0 0 20 20"
 xmlns:xlink="http://www.w3.org/1999/xlink">
 <defs>
  <style type="text/css">
   <![CDATA[
    .fil1 {fill:red}
    .fil0 {fill:red;fill-opacity:0.050980}
   ]]>
  </style>
 </defs>
 <g id="Слой_x0020_1">
  <metadata id="CorelCorpID_0Corel-Layer"/>
  <path class="fil0" d="M20 10c0,-6 -5,-10 -10,-10 -6,0 -10,5 -10,10 0,6 5,10 10,10 6,0 10,-5 10,-10z"/>
  <path class="fil1" d="M13 8c0,0 0,0 0,0l0 0c0,0 0,0 0,0l-6 0c0,0 0,0 0,0l0 0c0,0 0,0 0,0l1 0c0,0 0,0 0,0l0 0c0,0 0,-1 1,-1l1 0c0,0 1,0 1,1l0 0c0,0 0,0 0,0l1 0zm-1 5c0,-1 0,-3 0,-3 0,0 0,0 0,0 0,0 0,0 0,0l-5 0c0,0 0,0 0,0 0,0 0,0 0,0 0,0 0,0 0,0 0,1 0,2 0,3 0,1 0,1 1,1 0,0 1,0 1,0 0,0 1,0 1,0 1,0 1,0 1,-1z"/>
 </g>
</svg>
